:version 1.10
:name ASF
:units
  mass 1
  length 1
  angle deg
:documentation
  ASF file generated by Kaydara
:root
  axis xyz
  order  tx ty tz rx ry rz
  position 0 0 0
  orientation 0 0 0
:bonedata
  begin
    id 1
    name SpineDummy
    direction 0.999998 -0.00179978 1.38929e-006
    length 3.60008
    axis 0 0 0 xyz
  end
  begin
    id 2
    name Spine
    direction 0.964365 0.262802 0.0305839
    length 8.13928
    axis 1.33928 -1.75354 15.2838 xyz
    dof rx ry rz
  end
  begin
    id 3
    name Spine1
    direction 0.811168 0.572065 0.12144
    length 7.14954
    axis 2.2224 -6.9761 35.2157 xyz
    dof rx ry rz
  end
  begin
    id 4
    name Neck
    direction 0 0 0
    length 0
    axis 2.2224 -6.9761 35.2157 xyz
    dof rx ry rz
  end
  begin
    id 5
    name HeadDummy
    direction 0.810939 0.572387 0.121455
    length 3.55534
    axis 2.2224 -6.9761 35.2157 xyz
  end
  begin
    id 6
    name Head
    direction 0.998226 -0.000232542 0.0595419
    length 7.35666
    axis -3.03688 -3.41352 -0.0133467 xyz
    dof rx ry rz
  end
  begin
    id 7
    name R_ClavicleDummy
    direction 0.531669 -0.194489 -0.824319
    length 2.49392
    axis 2.2224 -6.9761 35.2157 xyz
  end
  begin
    id 8
    name R_Clavicle
    direction -0.155119 0.0480802 -0.986725
    length 4.485
    axis -54.2764 80.6538 162.779 xyz
    dof rx ry rz
  end
  begin
    id 9
    name R_UpperArm
    direction -0.955567 0.200068 -0.216484
    length 10.1122
    axis -72.9943 12.5026 168.175 xyz
    dof rx ry rz
  end
  begin
    id 10
    name R_Forearm
    direction -0.61433 0.385743 0.688332
    length 9.39148
    axis -117.015 -43.4982 147.875 xyz
    dof rx ry rz
  end
  begin
    id 11
    name R_Hand
    direction -0.699429 0.0170333 0.714499
    length 3.66324
    axis -45.0303 -36.7097 175.478 xyz
    dof rx ry rz
  end
  begin
    id 12
    name L_ClavicleDummy
    direction 0.40287 -0.36502 0.839319
    length 2.49392
    axis 2.2224 -6.9761 35.2157 xyz
  end
  begin
    id 13
    name L_Clavicle
    direction -0.231271 -0.0726419 0.970174
    length 4.485
    axis 18.4357 -75.9711 -162.563 xyz
    dof rx ry rz
  end
  begin
    id 14
    name L_UpperArm
    direction -0.917494 0.144359 0.370629
    length 10.1122
    axis 56.0417 -21.7544 171.058 xyz
    dof rx ry rz
  end
  begin
    id 15
    name L_Forearm
    direction -0.496786 0.615074 -0.612281
    length 9.39148
    axis 89.8094 37.7546 128.927 xyz
    dof rx ry rz
  end
  begin
    id 16
    name L_Hand
    direction -0.409932 0.64962 -0.640274
    length 3.66324
    axis -0.424369 32.133 128.52 xyz
    dof rx ry rz
  end
  begin
    id 17
    name L_ThighDummy
    direction -1.84081e-006 1.87549e-006 1
    length 3.13049
    axis 0 0 0 xyz
  end
  begin
    id 18
    name L_Thigh
    direction -0.947739 0.307978 0.083308
    length 17.9961
    axis 173.219 -4.77873 161.998 xyz
    dof rx ry rz
  end
  begin
    id 19
    name L_Calf
    direction -0.728814 -0.684427 0.0197583
    length 13.3367
    axis 167.331 -1.13214 -136.799 xyz
    dof rx ry rz
  end
  begin
    id 20
    name L_Foot
    direction -0.9028 0.418719 0.0981191
    length 5.8674
    axis 163.436 11.5135 -155.37 xyz
    dof rx ry rz
  end
  begin
    id 21
    name L_Toe0
    direction -0.35341 0.886259 0.299411
    length 4.75286
    axis 169.316 -17.4222 111.74 xyz
    dof rx ry rz
  end
  begin
    id 22
    name R_ThighDummy
    direction 9.32778e-007 -8.82053e-007 -1
    length 3.13049
    axis 0 0 0 xyz
  end
  begin
    id 23
    name R_Thigh
    direction -0.925064 0.37528 -0.0585023
    length 17.9961
    axis -178.698 3.35385 157.919 xyz
    dof rx ry rz
  end
  begin
    id 24
    name R_Calf
    direction -0.68969 -0.718776 -0.0876886
    length 13.3367
    axis -160.504 5.03065 -133.817 xyz
    dof rx ry rz
  end
  begin
    id 25
    name R_Foot
    direction -0.857405 0.418858 -0.299022
    length 5.8674
    axis -161.328 4.38911 -154.413 xyz
    dof rx ry rz
  end
  begin
    id 26
    name R_Toe0
    direction -0.100745 0.952789 -0.286433
    length 4.75286
    axis 171.683 16.6445 96.0359 xyz
    dof rx ry rz
  end
:hierarchy
  begin
    root SpineDummy L_ThighDummy R_ThighDummy
    SpineDummy Spine
    Spine Spine1
    Spine1 Neck
    Neck HeadDummy R_ClavicleDummy L_ClavicleDummy
    HeadDummy Head
    R_ClavicleDummy R_Clavicle
    R_Clavicle R_UpperArm
    R_UpperArm R_Forearm
    R_Forearm R_Hand
    L_ClavicleDummy L_Clavicle
    L_Clavicle L_UpperArm
    L_UpperArm L_Forearm
    L_Forearm L_Hand
    L_ThighDummy L_Thigh
    L_Thigh L_Calf
    L_Calf L_Foot
    L_Foot L_Toe0
    R_ThighDummy R_Thigh
    R_Thigh R_Calf
    R_Calf R_Foot
    R_Foot R_Toe0
  end

:SAMPLES-PER-SECOND 30
:FULLY-SPECIFIED
:DEGREES
333
root  -2.14122 22.8522 19.7922 -74.2545 24.2769 91.1532
Spine  14.1945 19.3268 50.072
Spine1  4.26689 -7.30883 -13.8293
Neck  3.97569e-016 0 -2.38542e-015
Head  2.72447 -7.61669 -13.6832
R_Clavicle  -2.20315 5.73197 -8.57927
R_UpperArm  51.6289 16.8851 58.3424
R_Forearm  15.6392 -0.398318 -11.8487
R_Hand  -23.4514 33.125 -78.5357
L_Clavicle  1.14649 -13.1869 -3.08712
L_UpperArm  35.9018 -15.6649 -33.2819
L_Forearm  49.2598 -19.4974 -24.113
L_Hand  1.26308 -9.31859 -36.5098
L_Thigh  -35.8424 -23.9089 32.425
L_Calf  -14.6361 4.44672 -34.7132
L_Foot  14.0388 5.15685 44.3589
L_Toe0  6.83659 -1.42734 5.29424
R_Thigh  19.8241 5.56081 66.3686
R_Calf  17.7379 -4.80146 -14.9566
R_Foot  -4.64143 -10.7271 7.15592
R_Toe0  -1.67848 -0.270116 -17.261
334
root  -1.85355 22.9347 19.5778 -72.1806 23.3091 92.7789
Spine  12.5259 18.8517 47.851
Spine1  3.45794 -7.27457 -10.7927
Neck  3.97569e-016 0 -2.38542e-015
Head  1.57766 -5.24123 -12.9723
R_Clavicle  -2.04278 6.64751 -7.6261
R_UpperArm  53.2485 18.8645 55.8418
R_Forearm  15.716 2.02391 -13.9952
R_Hand  -15.7162 47.6842 -51.9452
L_Clavicle  0.902361 -12.2762 -2.32828
L_UpperArm  34.4455 -14.8135 -32.7587
L_Forearm  47.8007 -18.0678 -22.1108
L_Hand  1.21457 -9.08128 -37.559
L_Thigh  -33.3729 -22.7515 31.2181
L_Calf  -12.8711 4.52034 -35.3583
L_Foot  14.0081 5.20382 44.1779
L_Toe0  7.60692 -1.67052 5.92862
R_Thigh  20.9361 5.59725 65.2892
R_Calf  18.524 -4.66639 -14.5344
R_Foot  -4.3359 -9.95431 7.00769
R_Toe0  -1.54629 -0.267742 -17.1859
335
root  -1.65102 23.4917 19.3815 -70.5424 22.1572 93.5536
Spine  11.324 18.2157 46.3926
Spine1  2.78665 -8.69732 -11.2471
Neck  3.97569e-016 0 -2.38542e-015
Head  -0.630501 -4.4175 -12.3004
R_Clavicle  -1.94049 6.64066 -7.22619
R_UpperArm  51.7807 29.8189 44.703
R_Forearm  10.9672 -16.2741 0.904751
R_Hand  2.26981 28.0897 -6.18975
L_Clavicle  0.937254 -9.06903 -3.20122
L_UpperArm  33.9966 -13.1746 -30.1872
L_Forearm  42.877 -14.4461 -17.288
L_Hand  1.33492 -9.22166 -39.4127
L_Thigh  -31.0116 -21.9743 29.1205
L_Calf  -12.6351 4.29144 -33.343
L_Foot  14.4454 6.6096 42.7703
L_Toe0  5.79787 -1.42502 6.81482
R_Thigh  21.3068 5.55157 62.5807
R_Calf  19.2048 -3.88918 -12.0401
R_Foot  -4.57647 -10.8294 6.71656
R_Toe0  -1.70433 -0.270654 -17.2757
336
root  -1.47394 24.4912 19.1437 -68.428 21.0736 93.6171
Spine  10.5602 17.9639 45.3091
Spine1  2.16549 -10.6769 -13.2517
Neck  3.97569e-016 0 -2.38542e-015
Head  -2.79269 -4.72236 -12.5389
R_Clavicle  -1.58425 6.07512 -5.96216
R_UpperArm  40.3081 42.603 22.7151
R_Forearm  6.7466 -46.6012 35.6018
R_Hand  -1.10183 -6.27269 -11.3492
L_Clavicle  0.743364 -5.02486 -3.2636
L_UpperArm  33.8874 -10.7379 -26.6857
L_Forearm  37.2753 -9.30849 -10.8919
L_Hand  1.24088 -9.16433 -37.5964
L_Thigh  -29.2682 -20.6454 26.0058
L_Calf  -8.506 3.91101 -30.0868
L_Foot  14.9174 9.40108 39.2563
L_Toe0  6.53681 -1.53038 6.73067
R_Thigh  20.0523 5.34477 58.4725
R_Calf  20.4179 -2.55858 -7.82201
R_Foot  -4.30617 -10.9781 5.25825
R_Toe0  -1.8045 -0.272716 -17.3326
337
root  -1.34365 25.81 18.7778 -65.0246 20.1402 92.7729
Spine  8.66319 18.9776 40.966
Spine1  0.554156 -12.7744 -10.2263
Neck  3.97569e-016 0 -2.38542e-015
Head  -4.64848 -4.04209 -14.1067
R_Clavicle  -0.623994 6.89821 -1.97795
R_UpperArm  33.7008 36.8432 20.8008
R_Forearm  32.3614 -29.4981 19.7494
R_Hand  -1.40327 -7.51344 -2.94758
L_Clavicle  0.368936 -4.49126 -1.34537
L_UpperArm  32.201 -9.14267 -25.1287
L_Forearm  33.4514 -3.64664 -4.19963
L_Hand  0.81695 -8.32312 -32.4812
L_Thigh  -27.2314 -18.2072 21.9964
L_Calf  7.75489 3.5039 -26.649
L_Foot  12.3866 10.0179 31.1567
L_Toe0  14.6911 -3.1244 6.0274
R_Thigh  16.273 4.51094 53.2253
R_Calf  22.841 -0.869911 -2.56778
R_Foot  -3.15621 -9.41167 2.21692
R_Toe0  -1.76446 -0.271486 -17.3098
338
root  -1.25446 27.0426 18.2177 -60.5479 19.2316 91.4468
Spine  5.60221 18.2347 33.8947
Spine1  -1.14763 -11.2615 -7.37514
Neck  3.97569e-016 0 -2.38542e-015
Head  -5.4398 -3.15408 -11.2152
R_Clavicle  -0.41694 5.62094 -1.29647
R_UpperArm  23.0093 32.7678 19.3775
R_Forearm  37.6052 -8.34181 7.58448
R_Hand  -1.32717 -7.10963 -0.453625
L_Clavicle  0.496509 -0.257543 -3.66851
L_UpperArm  31.4232 -9.74298 -17.1071
L_Forearm  30.5624 0.963309 1.13681
L_Hand  0.393318 -7.14301 -27.1066
L_Thigh  -24.3547 -14.4486 18.0378
L_Calf  27.2911 3.14087 -23.6232
L_Foot  5.45023 2.23021 20.6488
L_Toe0  15.393 -4.1055 8.50723
R_Thigh  10.0427 3.45464 48.045
R_Calf  25.2117 0.290116 1.00788
R_Foot  -1.7151 -7.05439 -1.77859
R_Toe0  -1.14265 -0.265591 -16.9673
339
root  -1.2196 27.8303 17.5038 -55.5847 17.7901 90.4571
Spine  3.4803 15.6873 30.4573
Spine1  -1.9994 -7.8321 -12.4651
Neck  3.97569e-016 0 -2.38542e-015
Head  -5.75727 -2.72371 -2.11205
R_Clavicle  -0.884702 4.05711 -3.53835
R_UpperArm  14.9145 27.6724 17.8588
R_Forearm  20.4917 11.0523 -9.36651
R_Hand  -0.504814 -3.30263 3.69638
L_Clavicle  -0.0703427 11.1317 -4.98659
L_UpperArm  35.131 -10.5015 -3.43225
L_Forearm  27.2965 4.04552 4.7118
L_Hand  0.0415117 -5.72096 -23.2929
L_Thigh  -20.9636 -9.67374 14.7494
L_Calf  31.8242 2.98749 -22.4759
L_Foot  -0.928516 -10.0592 14.7575
L_Toe0  17.3594 -5.52584 11.378
R_Thigh  2.58451 2.80057 43.8601
R_Calf  23.0861 -0.0329835 0.0127212
R_Foot  -0.304367 -4.24036 -6.03581
R_Toe0  1.05242 -0.317984 -15.6024
340
root  -1.27802 28.2214 16.6964 -50.1491 15.3187 89.6769
Spine  2.42993 15.5731 25.8479
Spine1  -2.74437 -7.04983 -12.8486
Neck  3.97569e-016 0 -2.38542e-015
Head  -8.49876 -1.77725 4.62952
R_Clavicle  -1.01118 6.66721 -3.53591
R_UpperArm  4.84794 20.8022 9.65082
R_Forearm  -2.74212 27.6595 -25.8345
R_Hand  0.580624 -0.451722 11.0356
L_Clavicle  -0.286989 13.7829 -4.90397
L_UpperArm  36.9995 -9.35234 2.93153
L_Forearm  24.6012 7.18879 8.40583
L_Hand  -0.246865 -4.25763 -21.7319
L_Thigh  -17.0787 -5.119 11.6948
L_Calf  16.8934 3.18525 -24.1023
L_Foot  -0.395553 -9.71656 17.3572
L_Toe0  10.8502 -2.2536 3.57707
R_Thigh  -4.5933 2.04506 39.6478
R_Calf  15.4326 -1.46764 -4.41586
R_Foot  0.474666 -2.36684 -8.5733
R_Toe0  4.49781 -0.605456 -13.3584
341
root  -1.37508 28.3847 15.8074 -43.9515 12.3158 88.439
Spine  2.92661 16.6437 22.1803
Spine1  -2.08978 -8.11639 -12.6439
Neck  3.97569e-016 0 -2.38542e-015
Head  -14.807 -0.341952 9.59208
R_Clavicle  -0.926646 7.85068 -3.00376
R_UpperArm  -5.40995 12.3689 0.714361
R_Forearm  -21.1962 36.1937 -37.4461
R_Hand  1.60662 1.65603 16.4741
L_Clavicle  -0.0598581 11.0449 -5.72687
L_UpperArm  38.8577 -6.50143 4.91689
L_Forearm  23.4935 9.61782 11.3187
L_Hand  -0.343308 -3.72474 -21.2074
L_Thigh  -11.9358 -0.687124 10.0241
L_Calf  -2.81953 3.11883 -23.5954
L_Foot  2.77273 -2.2431 17.6208
L_Toe0  -0.431892 0.253517 -7.02617
R_Thigh  -10.0158 0.0631781 34.272
R_Calf  9.40454 -2.87237 -8.83964
R_Foot  0.160278 -3.24118 -7.73901
R_Toe0  7.72672 -1.05016 -11.9714
342
root  -1.52176 28.4573 14.8388 -36.8974 10.4079 86.2791
Spine  4.01181 17.4365 19.0608
Spine1  -0.576945 -10.0746 -12.048
Neck  3.97569e-016 0 -2.38542e-015
Head  -24.2369 1.64855 12.973
R_Clavicle  -1.07736 7.57332 -3.63065
R_UpperArm  -12.3368 3.33255 -7.10796
R_Forearm  -29.0103 36.5629 -38.037
R_Hand  3.09259 4.74767 20.2517
L_Clavicle  0.293394 7.35051 -6.41758
L_UpperArm  42.5833 -6.01803 3.08379
L_Forearm  23.424 10.677 12.6101
L_Hand  -0.33702 -3.68995 -20.3761
L_Thigh  -4.78491 2.16772 9.43025
L_Calf  -7.98361 2.35796 -17.6617
L_Foot  3.82247 1.81885 14.824
L_Toe0  0.505156 0.034446 -6.1361
R_Thigh  -13.0097 -4.32391 28.0283
R_Calf  10.1494 -3.78563 -11.8002
R_Foot  -0.810594 -5.50548 -4.7632
R_Toe0  8.52312 -1.25344 -11.3538
343
root  -1.78063 28.3476 13.9209 -29.1683 10.0248 83.8956
Spine  5.52304 17.1665 16.3466
Spine1  1.3787 -11.0904 -11.1496
Neck  3.97569e-016 0 -2.38542e-015
Head  -35.1575 2.63785 14.6727
R_Clavicle  -1.49669 6.5603 -5.49011
R_UpperArm  -14.9858 -2.45019 -13.4026
R_Forearm  -31.0308 31.0274 -29.9853
R_Hand  3.56814 5.46291 21.9733
L_Clavicle  0.334701 6.71462 -6.30277
L_UpperArm  48.2354 -10.2767 -1.75496
L_Forearm  23.3917 10.3232 12.1761
L_Hand  -0.515094 -2.4635 -18.6714
L_Thigh  2.69707 2.62134 8.92175
L_Calf  -0.527872 1.22108 -9.08156
L_Foot  2.21822 -0.805674 12.0289
L_Toe0  0.505156 0.034446 -6.1361
R_Thigh  -14.5318 -10.591 21.5108
R_Calf  11.5157 -4.42003 -13.825
R_Foot  -1.1256 -4.61192 -1.28149
R_Toe0  8.36995 -1.25788 -11.3188
344
root  -2.23255 27.9686 13.1874 -21.1849 9.91394 81.748
Spine  7.681 17.7623 15.0854
Spine1  3.35917 -12.6571 -10.9353
Neck  3.97569e-016 0 -2.38542e-015
Head  -45.8479 1.98041 14.9395
R_Clavicle  -1.7165 5.24808 -6.74314
R_UpperArm  -16.2414 -3.42336 -18.3592
R_Forearm  -30.1259 21.2142 -18.8183
R_Hand  2.34006 3.51836 17.5738
L_Clavicle  0.258741 6.92757 -5.58537
L_UpperArm  52.8728 -15.8914 -8.80857
L_Forearm  23.5262 9.12265 10.7172
L_Hand  -0.713553 -0.736828 -16.6861
L_Thigh  8.23744 2.21068 8.1881
L_Calf  7.43509 0.456607 -3.49911
L_Foot  -0.0749502 -6.42857 10.5229
L_Toe0  0.505156 0.034446 -6.1361
R_Thigh  -15.3613 -16.9268 13.3931
R_Calf  5.65253 -4.71105 -14.6846
R_Foot  0.613513 3.1585 4.38956
R_Toe0  9.02742 -1.35726 -11.2152
345
root  -2.85184 27.4175 12.6186 -13.8192 9.47254 79.3886
Spine  9.45943 19.2571 15.3658
Spine1  4.69155 -15.655 -11.967
Neck  3.97569e-016 0 -2.38542e-015
Head  -54.2445 0.787292 14.8427
R_Clavicle  -1.87022 4.96859 -7.47512
R_UpperArm  -17.7738 -1.62811 -21.904
R_Forearm  -25.1541 10.7283 -9.05931
R_Hand  0.980176 1.35305 9.69915
L_Clavicle  0.223534 5.8583 -4.27937
L_UpperArm  53.1997 -20.044 -15.6964
L_Forearm  23.8165 7.54285 8.82292
L_Hand  -0.665721 -0.294899 -14.309
L_Thigh  10.4416 2.13571 6.98349
L_Calf  9.69294 0.480132 -3.71431
L_Foot  -0.514072 -8.45794 12.4908
L_Toe0  0.505156 0.034446 -6.1361
R_Thigh  -14.5712 -21.678 3.03126
R_Calf  -4.00986 -4.31235 -13.3807
R_Foot  4.65082 14.5492 13.1363
R_Toe0  7.31713 -1.09722 -10.6625
346
root  -3.55881 26.8856 12.3021 -8.66815 8.47576 77.1456
Spine  10.0738 20.5763 15.0883
Spine1  4.99297 -17.757 -12.1574
Neck  3.97569e-016 0 -2.38542e-015
Head  -59.1455 0.560232 14.5693
R_Clavicle  -2.00751 5.62948 -7.80525
R_UpperArm  -17.3915 -0.239124 -22.6689
R_Forearm  -18.4953 5.17205 -4.3129
R_Hand  0.12028 -1.40149 7.18258
L_Clavicle  0.0603948 4.6167 -1.8688
L_UpperArm  46.9326 -22.5831 -20.212
L_Forearm  23.5846 5.96512 6.95442
L_Hand  -0.566071 0.0460081 -11.2947
L_Thigh  10.9594 3.03419 5.22283
L_Calf  9.08253 0.862013 -6.52937
L_Foot  0.393137 -7.8069 17.2066
L_Toe0  0.505156 0.034446 -6.1361
R_Thigh  -11.4779 -23.4815 -6.37424
R_Calf  -8.67474 -3.66929 -11.359
R_Foot  8.99375 22.6233 20.4668
R_Toe0  0.858923 -0.372227 -7.17517
347
root  -4.23378 26.7072 12.3154 -7.56601 7.30447 75.5367
Spine  9.5985 20.662 12.942
Spine1  4.60556 -16.9755 -10.1741
Neck  3.97569e-016 0 -2.38542e-015
Head  -60.4331 0.588343 14.543
R_Clavicle  -1.66091 2.83413 -7.35696
R_UpperArm  -13.6018 -1.23103 -16.4111
R_Forearm  -13.6987 7.2029 -6.02813
R_Hand  -0.342821 -3.64597 11.2167
L_Clavicle  -0.1794 5.53697 0.247195
L_UpperArm  34.399 -23.5425 -19.2438
L_Forearm  21.3431 3.85118 4.47882
L_Hand  -0.528684 1.44399 -8.52115
L_Thigh  10.9857 4.10803 3.24445
L_Calf  8.4894 1.10713 -8.35848
L_Foot  0.73044 -7.79026 19.4747
L_Toe0  0.437045 0.0383925 -6.20301
R_Thigh  -8.68122 -23.8389 -11.0007
R_Calf  -9.721 -3.38447 -10.4653
R_Foot  10.0439 23.8972 22.7666
R_Toe0  -0.928274 0.0147591 -6.32124
